<svg width="21" height="22" viewBox="0 0 21 22" fill="none" xmlns="http://www.w3.org/2000/svg">
<g clip-path="url(#clip0_112_1219)">
<path d="M11.4721 21.1991C13.5762 18.5659 18.375 12.1839 18.375 8.59912C18.375 4.25146 14.8477 0.724121 10.5 0.724121C6.15234 0.724121 2.625 4.25146 2.625 8.59912C2.625 12.1839 7.42383 18.5659 9.52793 21.1991C10.0324 21.8267 10.9676 21.8267 11.4721 21.1991ZM10.5 5.97412C11.1962 5.97412 11.8639 6.25068 12.3562 6.74297C12.8484 7.23525 13.125 7.90293 13.125 8.59912C13.125 9.29531 12.8484 9.96299 12.3562 10.4553C11.8639 10.9476 11.1962 11.2241 10.5 11.2241C9.80381 11.2241 9.13613 10.9476 8.64384 10.4553C8.15156 9.96299 7.875 9.29531 7.875 8.59912C7.875 7.90293 8.15156 7.23525 8.64384 6.74297C9.13613 6.25068 9.80381 5.97412 10.5 5.97412Z" fill="#2A43A3"/>
</g>
<defs>
<clipPath id="clip0_112_1219">
<rect width="21" height="21" fill="white" transform="translate(0 0.724121)"/>
</clipPath>
</defs>
</svg>
