<svg width="24" height="25" viewBox="0 0 24 25" fill="none" xmlns="http://www.w3.org/2000/svg">
<path d="M23.5391 9.6774C24.2198 13.7021 22.0888 17.5487 18.2343 19.4335C18.8437 21.0319 17.6531 22.7241 15.9693 22.7241C15.3489 22.7236 14.7523 22.4851 14.3026 22.0578C13.8528 21.6304 13.5841 21.0468 13.552 20.4272C13.2501 20.4362 10.5426 20.4272 9.97399 20.3972C9.96114 20.7154 9.88573 21.0278 9.75206 21.3168C9.61839 21.6057 9.42908 21.8655 9.19496 22.0812C8.96084 22.297 8.6865 22.4645 8.38761 22.5742C8.08872 22.6838 7.77115 22.7335 7.45305 22.7204C5.86587 22.6566 4.73665 21.0872 5.24993 19.5366C3.50571 18.9221 1.84962 17.9021 0.580242 16.2179C-0.0291329 15.4079 0.557742 14.2585 1.55712 14.2585C3.7279 14.2585 3.06743 11.7193 3.57977 9.09006C4.44368 4.68662 9.05243 1.72412 13.5041 1.72412C18.3079 1.72412 22.7456 5.03678 23.5391 9.6774ZM17.5082 18.4247C19.477 17.5257 21.3206 15.7665 22.0218 13.6369C23.9193 7.86709 19.0148 2.94943 13.5041 2.94943C9.59243 2.94943 5.5204 5.54725 4.78212 9.32443C4.3354 11.6171 5.01649 15.4815 1.55946 15.4815C2.72852 17.0335 4.29368 17.948 5.95305 18.4838C7.10899 17.4619 8.94696 17.7587 9.69509 19.156C10.3616 19.2029 13.4071 19.2113 13.8154 19.1944C13.9803 18.8724 14.2151 18.5914 14.5028 18.372C14.7905 18.1526 15.1236 18.0004 15.4778 17.9266C15.8319 17.8528 16.1981 17.8592 16.5495 17.9454C16.9008 18.0316 17.2284 18.1954 17.5082 18.4247ZM9.61493 8.99584C9.61493 7.3674 11.9981 7.36693 11.9981 8.99584C11.9981 10.6247 9.61493 10.6243 9.61493 8.99584ZM15.0791 8.99584C15.0791 7.3674 17.4632 7.36693 17.4632 8.99584C17.4632 10.6247 15.0791 10.6247 15.0791 8.99584ZM9.3318 12.3094C9.17055 11.5154 10.3715 11.2697 10.5327 12.0652L10.5356 12.0783C10.7296 13.0824 11.9348 14.1408 13.5412 14.0972C15.2137 14.0532 16.3185 13.0562 16.5463 12.0924C16.7554 11.3401 17.887 11.6068 17.7402 12.3737C17.4951 13.4133 16.2773 15.2799 13.4531 15.3221C11.4585 15.3221 9.6618 14.0171 9.33274 12.3104L9.3318 12.3094Z" fill="#2A43A3"/>
</svg>
