<svg width="48" height="49" viewBox="0 0 48 49" fill="none" xmlns="http://www.w3.org/2000/svg">
<path fill-rule="evenodd" clip-rule="evenodd" d="M14.7291 12.9482C13.5943 12.9482 12.7261 13.5622 12.4206 14.2751L12.4206 14.2751L8.87873 22.5391C8.55238 23.3006 7.67056 23.6533 6.90912 23.327C6.14768 23.0006 5.79497 22.1188 6.12131 21.3573L9.66318 13.0933C9.66318 13.0933 9.66318 13.0933 9.66318 13.0933C10.5108 11.1155 12.5808 9.94824 14.7291 9.94824H33.271C35.4193 9.94824 37.4892 11.1155 38.3369 13.0933L41.8787 21.3573C42.2051 22.1188 41.8524 23.0006 41.0909 23.327C40.3295 23.6533 39.4477 23.3006 39.1213 22.5391L35.5794 14.2751L36.9581 13.6842L35.5794 14.2751C35.2739 13.5622 34.4058 12.9482 33.271 12.9482H14.7291Z" fill="#2D51C8"/>
<path fill-rule="evenodd" clip-rule="evenodd" d="M6 21.9482C6 21.1198 6.67157 20.4482 7.5 20.4482H40.5C41.3284 20.4482 42 21.1198 42 21.9482V35.4482C42 36.2767 41.3284 36.9482 40.5 36.9482H7.5C6.67157 36.9482 6 36.2767 6 35.4482V21.9482ZM9 23.4482V33.9482H39V23.4482H9Z" fill="#2D51C8"/>
<path fill-rule="evenodd" clip-rule="evenodd" d="M7.5 33.9482C8.32843 33.9482 9 34.6198 9 35.4482C9 34.6198 9.67157 33.9482 10.5 33.9482C11.3284 33.9482 12 34.6198 12 35.4482V38.4482C12 39.2767 11.3284 39.9482 10.5 39.9482H7.5C6.67157 39.9482 6 39.2767 6 38.4482V35.4482C6 34.6198 6.67157 33.9482 7.5 33.9482Z" fill="#2D51C8"/>
<path fill-rule="evenodd" clip-rule="evenodd" d="M37.5 33.9482C38.3284 33.9482 39 34.6198 39 35.4482C39 34.6198 39.6716 33.9482 40.5 33.9482C41.3284 33.9482 42 34.6198 42 35.4482V38.4482C42 39.2767 41.3284 39.9482 40.5 39.9482H37.5C36.6716 39.9482 36 39.2767 36 38.4482V35.4482C36 34.6198 36.6716 33.9482 37.5 33.9482Z" fill="#2D51C8"/>
<path fill-rule="evenodd" clip-rule="evenodd" d="M10.5 27.9482C10.5 26.2914 11.8431 24.9482 13.5 24.9482C15.1569 24.9482 16.5 26.2914 16.5 27.9482C16.5 29.6051 15.1569 30.9482 13.5 30.9482C11.8431 30.9482 10.5 29.6051 10.5 27.9482Z" fill="#2D51C8"/>
<path fill-rule="evenodd" clip-rule="evenodd" d="M31.5 27.9482C31.5 26.2914 32.8431 24.9482 34.5 24.9482C36.1569 24.9482 37.5 26.2914 37.5 27.9482C37.5 29.6051 36.1569 30.9482 34.5 30.9482C32.8431 30.9482 31.5 29.6051 31.5 27.9482Z" fill="#2D51C8"/>
</svg>
