<svg width="48" height="49" viewBox="0 0 48 49" fill="none" xmlns="http://www.w3.org/2000/svg">
<path fill-rule="evenodd" clip-rule="evenodd" d="M7.3125 38.4482C8.14093 38.4482 8.8125 39.1198 8.8125 39.9482C8.8125 41.3258 9.21541 42.4672 9.85048 43.2349C10.4618 43.9738 11.3494 44.4482 12.5625 44.4482H24.9375C26.1506 44.4482 27.0382 43.9738 27.6495 43.2349C28.2846 42.4672 28.6875 41.3258 28.6875 39.9482C28.6875 39.1198 29.3591 38.4482 30.1875 38.4482C31.0159 38.4482 31.6875 39.1198 31.6875 39.9482C31.6875 41.8847 31.1224 43.7433 29.961 45.1472C28.7758 46.5798 27.0385 47.4482 24.9375 47.4482H12.5625C10.4615 47.4482 8.72416 46.5798 7.53898 45.1472C6.37756 43.7433 5.8125 41.8847 5.8125 39.9482C5.8125 39.1198 6.48407 38.4482 7.3125 38.4482Z" fill="#2D51C8"/>
<path fill-rule="evenodd" clip-rule="evenodd" d="M6 33.9482C5.46686 33.9482 4.5 34.6262 4.5 36.1982C4.5 37.7703 5.46686 38.4482 6 38.4482H31.5C32.0331 38.4482 33 37.7703 33 36.1982C33 34.6262 32.0331 33.9482 31.5 33.9482C30.6716 33.9482 30 33.2767 30 32.4482C30 31.6198 30.6716 30.9482 31.5 30.9482C34.28 30.9482 36 33.6285 36 36.1982C36 38.768 34.28 41.4482 31.5 41.4482H6C3.22001 41.4482 1.5 38.768 1.5 36.1982C1.5 33.6285 3.22001 30.9482 6 30.9482C6.82843 30.9482 7.5 31.6198 7.5 32.4482C7.5 33.2767 6.82843 33.9482 6 33.9482Z" fill="#2D51C8"/>
<path fill-rule="evenodd" clip-rule="evenodd" d="M5.25 29.4482C5.05109 29.4482 4.86032 29.5273 4.71967 29.6679C4.57902 29.8086 4.5 29.9993 4.5 30.1982C4.5 30.3972 4.57902 30.5879 4.71967 30.7286C4.86032 30.8692 5.05109 30.9482 5.25 30.9482H10.1904C10.7863 30.9485 11.3578 31.1852 11.7794 31.6064L13.5 33.3269L15.2206 31.6064C15.6422 31.1852 16.2137 30.9485 16.8096 30.9482H32.25C32.4489 30.9482 32.6397 30.8692 32.7803 30.7286C32.921 30.5879 33 30.3972 33 30.1982C33 29.9993 32.921 29.8086 32.7803 29.6679C32.6397 29.5273 32.4489 29.4482 32.25 29.4482H5.25ZM2.59835 27.5466C3.30161 26.8433 4.25544 26.4482 5.25 26.4482H32.25C33.2446 26.4482 34.1984 26.8433 34.9016 27.5466C35.6049 28.2499 36 29.2037 36 30.1982C36 31.1928 35.6049 32.1466 34.9016 32.8499C34.1984 33.5532 33.2446 33.9482 32.25 33.9482H17.1213L14.8266 36.243C14.8264 36.2432 14.8262 36.2434 14.826 36.2436C14.6519 36.4177 14.4454 36.5557 14.218 36.65C13.9904 36.7444 13.7464 36.7929 13.5 36.7929C13.2536 36.7929 13.0096 36.7444 12.782 36.65C12.5546 36.5557 12.3481 36.4177 12.174 36.2436C12.1738 36.2434 12.1736 36.2432 12.1734 36.243L9.87868 33.9482H5.25C4.25544 33.9482 3.30161 33.5532 2.59835 32.8499C1.89509 32.1466 1.5 31.1928 1.5 30.1982C1.5 29.2037 1.89509 28.2499 2.59835 27.5466Z" fill="#2D51C8"/>
<path fill-rule="evenodd" clip-rule="evenodd" d="M9.67371 22.1267C8.34464 23.1584 7.5 24.6826 7.5 26.8026V26.8232C7.5 27.6517 6.82843 28.3232 6 28.3232C5.17157 28.3232 4.5 27.6517 4.5 26.8232V26.8026C4.5 23.7663 5.76473 21.3633 7.8341 19.7569C9.86047 18.1839 12.5551 17.4482 15.375 17.4482H22.125C24.9474 17.4482 27.6424 18.1903 29.6681 19.769C31.7284 21.3746 32.9908 23.7702 33 26.7903C33 26.7944 33 26.7985 33 26.8026C33 26.8095 33 26.8164 33 26.8232H30C30 24.7026 29.1547 23.1723 27.8241 22.1353C26.4514 21.0655 24.4589 20.4482 22.125 20.4482H15.375C13.0386 20.4482 11.0458 21.0616 9.67371 22.1267Z" fill="#2D51C8"/>
<path fill-rule="evenodd" clip-rule="evenodd" d="M22.4205 9.95829C23.2434 9.86259 23.988 10.4521 24.0837 11.275L24.7812 17.2721C24.8769 18.095 24.2874 18.8397 23.4646 18.9354C22.6417 19.0311 21.897 18.4416 21.8013 17.6187L21.1038 11.6215C21.0081 10.7987 21.5976 10.054 22.4205 9.95829Z" fill="#2D51C8"/>
<path fill-rule="evenodd" clip-rule="evenodd" d="M43.564 9.95656C44.3878 10.0437 44.985 10.7821 44.8979 11.606L41.5457 43.3095C41.4553 44.4321 40.9471 45.4804 40.1211 46.2469C39.2889 47.0191 38.1956 47.4482 37.0603 47.4482H24C23.1716 47.4482 22.5 46.7767 22.5 45.9482C22.5 45.1198 23.1716 44.4482 24 44.4482H37.0603C37.4387 44.4482 37.8031 44.3052 38.0805 44.0478C38.3579 43.7904 38.5278 43.4376 38.5561 43.0603L38.5578 43.0374L41.9146 11.2905C42.0017 10.4667 42.7401 9.86945 43.564 9.95656Z" fill="#2D51C8"/>
<path fill-rule="evenodd" clip-rule="evenodd" d="M41.8262 3.46486C42.0932 4.24909 41.6739 5.10126 40.8896 5.36823L37.257 6.60487L35.9552 11.8121C35.7543 12.6158 34.9399 13.1044 34.1362 12.9035C33.3325 12.7025 32.8439 11.8881 33.0448 11.0845L34.5448 5.08445C34.6683 4.5902 35.0343 4.19246 35.5166 4.02828L39.9228 2.52828C40.7071 2.26131 41.5592 2.68063 41.8262 3.46486Z" fill="#2D51C8"/>
<path fill-rule="evenodd" clip-rule="evenodd" d="M19.5 11.4482C19.5 10.6198 20.1716 9.94824 21 9.94824H45C45.8284 9.94824 46.5 10.6198 46.5 11.4482C46.5 12.2767 45.8284 12.9482 45 12.9482H21C20.1716 12.9482 19.5 12.2767 19.5 11.4482Z" fill="#2D51C8"/>
</svg>
