<svg width="276" height="411" viewBox="0 0 276 411" fill="none" xmlns="http://www.w3.org/2000/svg">
<path d="M191.55 107.189L189.349 117.161C187.617 117.381 185.878 117.645 184.132 117.953L180.412 112.891L179.509 118.856C164.101 122.224 149.022 128.233 133.284 129.047L136.167 119.758C147.173 105.362 164.783 95.8972 177.682 89.5357C186.88 84.8416 196.973 82.1626 207.289 81.6774L211.097 91.0105C213.029 88.304 214.433 85.257 215.235 82.0296C216.714 82.1948 218.184 82.4372 219.637 82.7559C231.744 85.3534 242.354 92.4413 252.303 99.8154C260.345 105.759 268.145 111.988 275.702 118.504C266.081 121.326 256.025 122.363 246.03 121.563L239.823 111.68L237.005 120.793C232.03 120.265 227.078 119.56 222.169 118.856C214.244 117.53 206.232 116.794 198.198 116.655L191.55 107.189Z" fill="#6DEDB7"/>
<g opacity="0.3">
<path d="M191.55 107.189L189.349 117.161C187.617 117.381 185.878 117.645 184.132 117.953L180.412 112.891L179.509 118.856C164.101 122.224 149.022 128.233 133.284 129.047L136.167 119.758C147.173 105.362 164.783 95.8972 177.682 89.5357C186.88 84.8416 196.973 82.1626 207.289 81.6774L211.097 91.0105C213.029 88.304 214.433 85.257 215.235 82.0296C216.714 82.1948 218.184 82.4372 219.637 82.7559C231.744 85.3534 242.354 92.4413 252.303 99.8154C260.345 105.759 268.145 111.988 275.702 118.504C266.081 121.326 256.025 122.363 246.03 121.563L239.823 111.68L237.005 120.793C232.03 120.265 227.078 119.56 222.169 118.856C214.244 117.53 206.232 116.794 198.198 116.655L191.55 107.189Z" fill="black"/>
</g>
<path d="M79.244 321.5C83.4704 263.52 101.828 207.037 115.564 170.034C125.866 142.145 135.177 122.73 135.177 122.73L144.906 132.834C144.906 132.834 110.105 228.014 104.822 303.648C100.42 366.449 121.97 409.593 121.97 409.593L70.043 410.165C70.043 410.165 75.0397 379.48 79.244 321.5Z" fill="#263238"/>
<path d="M140.548 63.7155L121.243 52.5994C120.319 48.7473 119.394 44.8731 118.448 41.021H130.664L116.775 34.0651L108.784 0.892822C120.518 5.08852 131.039 12.1072 139.419 21.3298C147.799 30.5524 153.781 41.6955 156.837 53.7763C159.894 65.8571 159.93 78.5043 156.943 90.6024C153.956 102.701 148.038 113.878 139.711 123.148L139.117 126.714L123.929 63.7155H140.548Z" fill="#6DEDB7"/>
<g opacity="0.4">
<path d="M140.548 63.7155L121.243 52.5994C120.319 48.7473 119.394 44.8731 118.448 41.021H130.664L116.775 34.0651L108.784 0.892822C120.518 5.08852 131.039 12.1072 139.419 21.3298C147.799 30.5524 153.781 41.6955 156.837 53.7763C159.894 65.8571 159.93 78.5043 156.943 90.6024C153.956 102.701 148.038 113.878 139.711 123.148L139.117 126.714L123.929 63.7155H140.548Z" fill="black"/>
</g>
<path opacity="0.3" d="M135.529 147.472L133.283 134.573L121.441 144.39L131.368 128.541L138.368 130.654L141.494 138.006L135.529 147.472Z" fill="black"/>
<path d="M154.481 125.129C155.604 125.129 211.009 122.29 230.335 150.157C249.662 178.025 249.596 217.999 248.121 230.26L219.88 195.348L217.678 180.49L213.276 187.094C213.276 187.094 208.367 182.119 202.27 176.088L207.839 159.314L196.833 170.695C192.915 166.865 188.93 163.034 185.673 160.041L187.412 152.337C187.412 152.337 184.198 154.538 181.777 156.585L181.028 155.969C171.453 148.22 133.086 127.727 133.086 127.727C140.159 126.435 147.304 125.568 154.481 125.129Z" fill="#6DEDB7"/>
<path opacity="0.4" d="M154.481 125.129C155.604 125.129 211.009 122.29 230.335 150.157C249.662 178.025 249.596 217.999 248.121 230.26L219.88 195.348L217.678 180.49L213.276 187.094C213.276 187.094 208.367 182.119 202.27 176.088L207.839 159.314L196.833 170.695C192.915 166.865 188.93 163.034 185.673 160.041L187.412 152.337C187.412 152.337 184.198 154.538 181.777 156.585L181.028 155.969C171.453 148.22 133.086 127.727 133.086 127.727C140.159 126.435 147.304 125.568 154.481 125.129Z" fill="black"/>
<path opacity="0.3" d="M138.038 123.457C138.038 123.457 139.007 123.457 140.812 112.451C142.617 101.444 139.425 74.7217 123.928 63.7156L124.985 69.7249L138.038 123.457Z" fill="black"/>
<path d="M99.9131 67.6778L75.5236 76.0644L62.8006 66.2911L69.6244 58.1465L57.7378 62.3949L36.8703 46.4361C49.3772 41.8339 62.7087 39.8994 76.0079 40.7569C89.3857 41.4499 102.209 46.321 112.674 54.6845C123.138 63.048 130.716 74.4826 134.34 87.3787C138.128 100.094 139.274 113.451 137.708 126.626V126.428C124.774 114.223 111.093 102.836 96.7434 92.3314L88.929 86.3661L99.9131 67.6778Z" fill="#6DEDB7"/>
<g opacity="0.3">
<path d="M99.9131 67.6778L75.5236 76.0644L62.8006 66.2911L69.6244 58.1465L57.7378 62.3949L36.8703 46.4361C49.3772 41.8339 62.7087 39.8994 76.0079 40.7569C89.3857 41.4499 102.209 46.321 112.674 54.6845C123.138 63.048 130.716 74.4826 134.34 87.3787C138.128 100.094 139.274 113.451 137.708 126.626V126.428C124.774 114.223 111.093 102.836 96.7434 92.3314L88.929 86.3661L99.9131 67.6778Z" fill="black"/>
</g>
<path opacity="0.3" d="M134.957 123.633C134.957 123.633 135.221 114.124 122.784 104.042C110.347 93.9604 100.772 95.2371 100.772 95.2371L134.957 123.633Z" fill="black"/>
<path d="M66.5868 89.888C80.5473 89.4078 94.3911 92.5837 106.746 99.1011C119.102 105.618 129.539 115.251 137.026 127.044L136.057 130.192C124.19 125.335 111.682 122.221 98.9226 120.947L98.1742 117.205L95.973 120.683C93.7718 120.507 91.7026 120.397 89.5454 120.331L85.3191 109.171L83.6022 120.287H81.6431C77.2406 120.287 64.9359 121.541 64.9359 121.541C62.4485 121.938 59.9611 122.356 57.4957 122.796L51.6625 113.749L50.4519 124.073L43.6721 125.372L38.3672 121.541L37.6628 126.538C25.1599 129.004 12.679 131.557 0 133.604C6.32525 121.145 15.7977 110.557 27.4779 102.888C39.1581 95.2198 52.6401 90.7382 66.5868 89.888Z" fill="#6DEDB7"/>
<path opacity="0.2" d="M159.038 142.541C156.237 138.11 152.753 134.15 148.714 130.809C145.764 128.408 142.159 126.951 138.368 126.626L159.038 142.541Z" fill="black"/>
<g opacity="0.4">
<path d="M66.5868 89.888C80.5473 89.4078 94.3911 92.5837 106.746 99.1011C119.102 105.618 129.539 115.251 137.026 127.044L136.057 130.192C124.19 125.335 111.682 122.221 98.9226 120.947L98.1742 117.205L95.973 120.683C93.7718 120.507 91.7026 120.397 89.5454 120.331L85.3191 109.171L83.6022 120.287H81.6431C77.2406 120.287 64.9359 121.541 64.9359 121.541C62.4485 121.938 59.9611 122.356 57.4957 122.796L51.6625 113.749L50.4519 124.073L43.6721 125.372L38.3672 121.541L37.6628 126.538C25.1599 129.004 12.679 131.557 0 133.604C6.32525 121.145 15.7977 110.557 27.4779 102.888C39.1581 95.2198 52.6401 90.7382 66.5868 89.888Z" fill="black"/>
</g>
<path opacity="0.3" d="M136.916 125.658C136.916 125.658 133.944 122.07 125.579 121.475C120.041 120.871 114.441 121.131 108.982 122.246L127.384 125.658H136.916Z" fill="black"/>
<path d="M136.629 125.46C148.604 116.963 160.843 108.312 174.82 103.161C198.197 94.3566 224.216 98.759 246.888 107.564C224.194 99.1993 198.329 95.3691 175.305 104.46C161.613 109.853 149.704 118.592 137.884 127.265L136.607 125.482L136.629 125.46Z" fill="#263238"/>
<path d="M144.95 177.21L158.95 176.462L143.343 167.657C143.145 166.468 142.947 165.28 142.727 164.091L146.601 155.396L141.67 157.774C140.108 148.44 137.092 135.761 135.529 126.384H137.73C162.494 140.648 184.506 169.132 190.67 197.065C193.777 211.349 193.814 226.13 190.78 240.429L174.601 236.511L188.27 250.819C185.141 260.815 180.486 270.267 174.469 278.84C164.541 262.023 159.06 243.005 153.755 224.206C152.501 218.908 151.546 213.543 150.894 208.137L158.774 197.681C159.566 197.285 148.362 196.999 148.362 196.999L144.95 177.21Z" fill="#6DEDB7"/>
<g opacity="0.3">
<path d="M144.95 177.21L158.95 176.462L143.343 167.657C143.145 166.468 142.947 165.28 142.727 164.091L146.601 155.396L141.67 157.774C140.108 148.44 137.092 135.761 135.529 126.384H137.73C162.494 140.648 184.506 169.132 190.67 197.065C193.777 211.349 193.814 226.13 190.78 240.429L174.601 236.511L188.27 250.819C185.141 260.815 180.486 270.267 174.469 278.84C164.541 262.023 159.06 243.005 153.755 224.206C152.501 218.908 151.546 213.543 150.894 208.137L158.774 197.681C159.566 197.285 148.362 196.999 148.362 196.999L144.95 177.21Z" fill="black"/>
</g>
<path d="M137.444 125.614C167.315 158.236 175.877 184.342 175.965 228.256C175.503 200.411 170.704 171.421 153.645 148.66C148.167 141.097 142.212 133.892 135.815 127.088L137.444 125.614Z" fill="#263238"/>
<path d="M82.8099 144.324V157.531C63.4172 169.858 44.2446 182.845 22.6727 190.175C24.6538 173.534 33.5467 158.456 45.9836 147.054L54.1721 149.849C54.1721 149.849 53.996 145.447 53.7099 140.758C57.5817 137.965 61.6834 135.506 65.9707 133.406C88.269 122.51 113.033 122.114 137.598 125.592L137.752 126.648C120.143 130.919 107.331 142.387 91.8349 151.874L82.8099 144.324Z" fill="#6DEDB7"/>
<g opacity="0.3">
<path d="M82.8099 144.324V157.531C63.4172 169.858 44.2446 182.845 22.6727 190.175C24.6538 173.534 33.5467 158.456 45.9836 147.054L54.1721 149.849C54.1721 149.849 53.996 145.447 53.7099 140.758C57.5817 137.965 61.6834 135.506 65.9707 133.406C88.269 122.51 113.033 122.114 137.598 125.592L137.752 126.648C120.143 130.919 107.331 142.387 91.8349 151.874L82.8099 144.324Z" fill="black"/>
</g>
<path d="M134.802 125.702C133.878 89.2715 112.02 45.5333 70.5707 46.4578C100.661 44.5428 123.906 70.363 131.787 97.3499C134.686 106.482 136.438 115.939 137.003 125.503L134.802 125.614V125.702Z" fill="#263238"/>
<path opacity="0.1" d="M95.5328 231.668L114.816 237.898L116.136 231.933L97.2498 225.527C96.6628 227.552 96.0905 229.599 95.5328 231.668Z" fill="black"/>
<path opacity="0.1" d="M107.463 192.839C106.781 194.82 106.121 196.823 105.46 198.848L122.872 204.483C123.4 202.502 123.928 200.543 124.435 198.606L107.463 192.839Z" fill="black"/>
<path opacity="0.1" d="M118.205 162.968C117.479 164.883 116.731 166.865 116.004 168.89L131.413 173.908C132.007 171.905 132.601 169.968 133.196 168.075L118.205 162.968Z" fill="black"/>
<path opacity="0.1" d="M87.3664 265.325L108.74 270.234C109.004 268.517 109.29 266.8 109.577 265.083L88.511 259.932C88.1148 261.825 87.7406 263.52 87.3664 265.325Z" fill="black"/>
<path opacity="0.1" d="M104.822 303.868V303.648C104.954 301.689 105.13 299.73 105.306 297.749L82.0393 295.548C81.7312 297.749 81.4671 299.818 81.1809 301.953L104.822 303.868Z" fill="black"/>
<path opacity="0.1" d="M112.46 382.892L73.4547 384.411C73.3226 385.555 73.1905 386.656 73.0585 387.713V393.37L114.882 391.168C114.089 388.505 113.275 385.775 112.46 382.892Z" fill="black"/>
<path opacity="0.1" d="M105.636 346.616C105.394 344.414 105.196 341.927 104.998 339.528L77.8348 339.726C77.6147 342.257 77.4166 344.745 77.1965 347.166L105.636 346.616Z" fill="black"/>
</svg>
