<svg width="253" height="373" viewBox="0 0 253 373" fill="none" xmlns="http://www.w3.org/2000/svg">
<path d="M240.029 256.796C225.027 213.192 178.668 166.626 162.315 149.646C145.962 132.666 132.404 120.857 132.404 120.857L126.956 130.591C126.956 130.591 197.397 191.404 216.835 248.296C232.912 295.557 224.816 335.165 224.816 335.165L260.194 325.8C260.194 325.8 255.025 300.411 240.029 256.796Z" fill="#263238"/>
<path d="M116.296 76.6797C116.296 76.6797 124.228 68.7847 128.875 64.211C128.808 61.0607 128.739 57.9138 128.667 54.7704L119.269 57.2584L128.517 49.1487C128.321 40.1239 128.123 31.1027 127.924 22.085C119.848 27.7492 113.259 35.2779 108.714 44.0323C104.169 52.7867 101.803 62.5083 101.818 72.3721C102.028 82.2287 104.611 91.8895 109.348 100.536C114.084 109.183 120.834 116.561 129.027 122.045L130.209 124.656L129.095 73.2919L116.296 76.6797Z" fill="#6DEDB7"/>
<g opacity="0.2">
<path d="M116.296 76.6797C116.296 76.6797 124.228 68.7847 128.875 64.211C128.808 61.0607 128.739 57.9138 128.667 54.7704L119.269 57.2584L128.517 49.1487C128.321 40.1239 128.123 31.1027 127.924 22.085C119.848 27.7492 113.259 35.2779 108.714 44.0323C104.169 52.7867 101.803 62.5083 101.818 72.3721C102.028 82.2287 104.611 91.8895 109.348 100.536C114.084 109.183 120.834 116.561 129.027 122.045L130.209 124.656L129.095 73.2919L116.296 76.6797Z" fill="black"/>
</g>
<path opacity="0.3" d="M137.162 139.908L136.262 129.571L147.338 134.7L136.524 124.563L131.569 127.604L130.66 133.872L137.162 139.908Z" fill="black"/>
<path d="M118.096 126.624C117.251 126.802 74.195 135.926 65.0185 161.181C55.842 186.435 64.0153 217.109 67.6447 226.205L82.2195 193.691L80.9125 181.849L85.6851 186.069C85.6851 186.069 88.4306 181.25 91.9031 175.338L84.2148 163.606L95.0002 170.095C97.2273 166.35 99.5088 162.607 101.394 159.656C100.144 157.259 98.505 154.1 98.505 154.1C98.505 154.1 101.468 155.188 103.683 156.215L104.133 155.588C109.901 147.704 135.143 124.197 135.143 124.197C129.417 124.662 123.724 125.472 118.096 126.624Z" fill="#6DEDB7"/>
<path opacity="0.2" d="M118.096 126.624C117.251 126.802 74.195 135.926 65.0185 161.181C55.842 186.435 64.0153 217.109 67.6447 226.205L82.2195 193.691L80.9125 181.849L85.6851 186.069C85.6851 186.069 88.4306 181.25 91.9031 175.338L84.2148 163.606L95.0002 170.095C97.2273 166.35 99.5088 162.607 101.394 159.656C100.144 157.259 98.505 154.1 98.505 154.1C98.505 154.1 101.468 155.188 103.683 156.215L104.133 155.588C109.901 147.704 135.143 124.197 135.143 124.197C129.417 124.662 123.724 125.472 118.096 126.624Z" fill="black"/>
<path d="M86.0376 120.407L89.7266 127.607C91.11 127.41 92.4961 127.257 93.8932 127.146L95.7172 122.517L97.6258 126.898C110.133 126.351 122.864 127.929 135.156 125.326L131.065 118.795C119.693 109.991 104.324 106.258 93.1081 104.038C85.098 102.31 76.8117 102.306 68.8 104.027L67.7783 111.956C65.7509 110.271 64.0563 108.222 62.7819 105.914C61.6946 106.353 60.616 106.826 59.5946 107.346C50.8419 111.803 44.1373 119.382 38.0132 127.066C33.0713 133.254 28.3589 139.613 23.876 146.144C31.8426 146.531 39.604 144.932 47.2426 142.464L50.0015 133.62L54.0039 140.05C57.7037 138.634 61.3598 137.086 64.9825 135.548C70.8396 133.052 76.736 130.537 82.894 128.943L86.0376 120.407Z" fill="#6DEDB7"/>
<path opacity="0.3" d="M130.363 122.003C130.363 122.003 129.643 122.283 126.014 114.131C122.385 105.98 119.428 84.972 129.045 73.3051L129.431 78.1334L130.363 122.003Z" fill="black"/>
<path d="M148.264 71.5075L168.65 73.0032L176.472 62.9083L169.598 58.0587L179.575 58.9036L192.327 42.4394C181.797 41.5979 171.041 42.5283 161.086 46.0462C151.131 49.5642 141.999 55.7531 135.735 64.2586C129.472 72.764 126.304 83.1607 125.821 93.631C125.338 104.101 127.49 114.588 131.211 124.4L131.171 124.25C138.352 112.105 147.008 100.915 155.647 89.7657L160.417 83.5994L148.264 71.5075Z" fill="#6DEDB7"/>
<path opacity="0.3" d="M132.756 121.512C132.756 121.512 130.63 114.291 138.126 104.042C145.622 93.7926 153.276 92.8989 153.276 92.8989L132.756 121.512Z" fill="black"/>
<path d="M178.329 81.7821C156.732 86.4204 138.258 103.428 131.842 124.563L133.215 126.785C141.332 120.63 150.294 115.678 159.825 112.082L159.639 109.055L162.078 111.263C163.711 110.694 165.331 110.17 166.94 109.691L167.907 100.242L171.472 108.42L172.98 108.02C176.324 107.18 186.048 105.586 186.048 105.586C188.038 105.39 190.015 105.214 192.003 105.044L194.634 96.9297L197.671 104.596C199.482 104.464 201.301 104.331 203.116 104.216L206.42 100.194L207.962 103.896C218.062 103.246 228.145 102.672 238.265 101.661C223.763 85.0731 199.927 77.1439 178.329 81.7821Z" fill="#6DEDB7"/>
<path opacity="0.2" d="M118.138 140.896C118.138 140.896 120.18 134.194 123.667 129.821C127.155 125.447 130.751 124.513 130.751 124.513L118.138 140.896Z" fill="black"/>
<g opacity="0.2">
<path d="M178.329 81.7821C156.732 86.4204 138.258 103.428 131.842 124.563L133.215 126.785C141.332 120.63 150.294 115.678 159.825 112.082L159.639 109.055L162.078 111.263C163.711 110.694 165.331 110.17 166.94 109.691L167.907 100.242L171.472 108.42L172.98 108.02C176.324 107.18 186.048 105.586 186.048 105.586C188.038 105.39 190.015 105.214 192.003 105.044L194.634 96.9297L197.671 104.596C199.482 104.464 201.301 104.331 203.116 104.216L206.42 100.194L207.962 103.896C218.062 103.246 228.145 102.672 238.265 101.661C223.763 85.0731 199.927 77.1439 178.329 81.7821Z" fill="black"/>
</g>
<path opacity="0.3" d="M131.677 123.465C131.677 123.465 133.215 120.116 139.502 117.961C147.783 115.127 152.398 115.181 152.398 115.181L138.984 121.531L131.677 123.465Z" fill="black"/>
<path d="M131.392 124.477C107.438 114.822 88.7976 109.682 63.9247 120.403C56.7954 123.523 50.0107 127.378 43.6807 131.905C49.9734 127.314 56.7294 123.395 63.8384 120.212C78.3246 113.702 94.155 112.035 109.54 116.263C117.119 118.153 124.425 120.927 131.705 123.672L131.392 124.477Z" fill="#263238"/>
<path d="M135.981 164.615L125.082 166.858L135.258 156.933C135.174 155.975 135.081 155.018 134.997 154.06L130.266 148.18L134.526 149.013C133.829 141.53 133.564 131.168 132.87 123.693L131.136 124.152C115.033 140.113 103.943 166.426 104.879 189.057C105.398 200.638 108.366 211.977 113.588 222.327L125.208 216.041L117.762 229.745C122.194 236.771 127.679 243.074 134.024 248.435C138.226 233.521 138.536 217.818 138.832 202.333C138.917 198.004 137.753 189.431 137.753 189.431L129.59 183.015C128.911 182.874 137.444 180.383 137.444 180.383C136.956 175.127 136.468 169.871 135.981 164.615Z" fill="#6DEDB7"/>
<path d="M132.418 124.143C115.651 155.481 114.28 175.7 122.554 210.056C118.869 195.696 116.432 180.765 117.572 165.904C118.348 158.478 120.032 151.175 122.586 144.159C125.169 137.168 128.197 130.35 131.654 123.748L132.418 124.143Z" fill="#263238"/>
<path d="M176.946 126.809L179.621 136.916C196.979 142.432 214.31 148.49 232.34 149.708C227.438 137.355 217.572 127.601 205.718 121.386L200.004 125.198C200.004 125.198 199.231 121.739 198.525 118.127C194.987 116.77 191.341 115.716 187.625 114.977C168.33 111.168 149.255 115.87 131.124 123.531L131.228 124.396C145.584 124.099 157.751 130.285 171.552 134.424L176.946 126.809Z" fill="#6DEDB7"/>
<path d="M132.045 123.341C127.679 101.627 130.072 75.9042 146.833 59.8676C152.265 54.5779 159.084 50.9337 166.501 49.3562C159.118 50.9984 152.35 54.697 146.981 60.0244C136.012 70.5245 131.356 85.978 130.878 100.843C130.625 108.337 131.301 115.834 132.89 123.162L132.045 123.341Z" fill="#263238"/>
<path opacity="0.1" d="M152.034 139.27L152.021 139.22L149.431 136.678L142.121 144.631L142.143 144.714C142.889 145.409 143.671 146.209 144.466 146.988L144.6 147.122L152.034 139.27Z" fill="black"/>
<path opacity="0.1" d="M159.532 162.509L161.956 165.166L169.595 157.241L166.975 154.484L166.962 154.434L159.532 162.509Z" fill="black"/>
<path opacity="0.1" d="M186.71 175.652C185.86 174.688 185.011 173.724 184.161 172.76L176.457 181.816C177.222 182.755 177.998 183.7 178.766 184.647L186.71 175.652Z" fill="black"/>
<path opacity="0.1" d="M203.515 195.553C202.686 194.506 201.86 193.476 201.026 192.449L190.925 200.669C191.658 201.687 192.358 202.714 193.094 203.741L203.515 195.553Z" fill="black"/>
<path opacity="0.1" d="M204.441 221.681C205.115 222.849 205.76 224.007 206.406 225.2L219.347 217.165C218.55 215.973 217.746 214.789 216.936 213.613L204.441 221.681Z" fill="black"/>
<path opacity="0.1" d="M215.904 245.787C216.208 246.598 216.508 247.464 216.802 248.305C216.987 249.004 217.245 249.676 217.472 250.365L234.715 243.83C233.994 242.283 233.228 240.738 232.446 239.197L215.904 245.787Z" fill="black"/>
<path opacity="0.1" d="M254.929 304.627L226.859 310.515C226.842 312.874 226.778 315.093 226.692 317.157L256.742 311.476C256.195 309.41 255.588 307.119 254.929 304.627Z" fill="black"/>
<path opacity="0.1" d="M223.902 276.035C224.224 277.894 224.534 279.737 224.797 281.54L246.517 276.388C245.934 274.554 245.318 272.666 244.694 270.745L223.902 276.035Z" fill="black"/>
<path opacity="0.1" d="M240.029 256.796C225.027 213.192 178.668 166.626 162.315 149.646C145.962 132.666 132.404 120.857 132.404 120.857L126.956 130.591C126.956 130.591 197.397 191.404 216.835 248.296C232.912 295.557 224.816 335.165 224.816 335.165L260.194 325.8C260.194 325.8 255.025 300.411 240.029 256.796Z" fill="white"/>
</svg>
