<svg width="88" height="29" viewBox="0 0 88 29" fill="none" xmlns="http://www.w3.org/2000/svg">
<path d="M85 22.9089C81.18 20.8289 79.45 22.5589 78.06 20.8289C76.67 19.0989 81.88 14.5789 71.47 10.0689C71.47 10.0689 70.77 0.358913 56.55 0.00891328C42.33 -0.341087 46.14 9.71891 42.33 12.1489C38.52 14.5789 37.47 10.7589 33.65 13.1489C29.83 15.5389 31.57 20.4389 28.45 21.1489C25.33 21.8589 21.16 18.0289 17.35 20.4589C13.54 22.8889 13.53 24.9689 11.8 24.9689C10.07 24.9689 6.58999 23.5789 4.50999 24.9689C2.42999 26.3589 0 28.0889 0 28.0889H87.77C87.77 28.0889 88.81 24.9789 85 22.9089Z" fill="white"/>
</svg>
