<svg width="1440" height="25" viewBox="0 0 1440 25" fill="none" xmlns="http://www.w3.org/2000/svg">
<path d="M0.662778 25H1442.61C1444.48 19.7382 1446.26 14.4764 1448 9.17668H1424.31C1401.77 9.17668 1313.62 -2.82336 1247.96 0.621435C1182.3 4.06623 1133.55 5.76969 1088.52 7.47316C1043.49 9.17663 992.867 14.3249 940.34 14.3249C887.814 14.3249 852.147 17.7697 790.259 17.7697C728.37 17.7697 672.074 14.3249 604.552 10.918C537.03 7.51103 512.63 10.918 450.742 17.7697C388.854 24.6214 313.792 7.47316 242.5 7.47316C171.208 7.47316 163.793 19.4732 113.089 12.6215C74.233 7.35966 21.9551 11.183 0 13.2272C0.165699 17.1641 0.331381 21.2145 0.662778 25Z" fill="white"/>
</svg>
