<svg width="1017" height="326" viewBox="0 0 1017 326" fill="none" xmlns="http://www.w3.org/2000/svg">
<path opacity="0.4" d="M984.882 265.411C940.664 241.305 920.551 261.369 904.481 241.305C888.41 221.241 948.699 168.939 828.073 116.685C828.073 116.685 820.037 4.09349 655.241 0.100198C490.445 -3.8931 534.614 112.643 490.396 140.791C446.177 168.939 434.149 124.72 389.93 152.868C345.712 181.016 365.581 237.263 329.593 245.396C293.604 253.528 245.198 209.212 200.98 237.36C156.761 265.508 156.761 289.614 136.649 289.614C116.536 289.614 76.3595 273.543 52.2537 289.614C28.1478 305.685 0 325.797 0 325.797H1017.02C1017.02 325.797 1029.1 289.517 984.882 265.411Z" fill="white"/>
</svg>
