<svg width="1440" height="40" viewBox="0 0 1440 40" fill="none" xmlns="http://www.w3.org/2000/svg">
<path d="M0.882413 40H1438.9C1445.56 26.7559 1451.26 13.4226 1456 0H2.5762C-0.144459 13.2583 -0.712171 26.665 0.882413 40Z" fill="#6DD6ED"/>
<path d="M-2.33814 40H1437.62C1439.48 32.002 1441.26 24.0041 1443 15.9486H1419.34C1396.83 15.9486 1308.8 -2.29151 1243.24 2.94458C1177.67 8.18067 1128.98 10.7699 1084.01 13.3592C1039.05 15.9485 988.495 23.7738 936.042 23.7738C883.588 23.7738 847.97 29.0099 786.167 29.0099C724.364 29.0099 668.146 23.7739 600.717 18.5953C533.288 13.4168 508.922 18.5953 447.119 29.0099C385.316 39.4246 310.359 13.3592 239.165 13.3592C167.972 13.3592 160.567 31.5993 109.933 21.1847C71.1305 13.1867 18.9248 18.9982 -3 22.1053C-2.83453 28.0894 -2.66908 34.2461 -2.33814 40Z" fill="white"/>
</svg>
